<svg width="30" height="30" viewBox="0 0 30 30" fill="none" xmlns="http://www.w3.org/2000/svg">
<g clip-path="url(#clip0_2023_142)">
<path d="M27 0C28.6568 3.86554e-07 30 1.34315 30 3V27C30 28.6568 28.6568 30 27 30H3C1.34315 30 2.41604e-08 28.6568 0 27V3C3.86566e-07 1.34315 1.34315 2.41596e-08 3 0H27ZM14.5957 19.5035C14.4044 19.425 14.1938 19.4084 13.9928 19.4555C13.7917 19.5026 13.6097 19.6115 13.4713 19.7672L10.2047 23.4346C10.1091 23.5419 10.0372 23.6693 9.99372 23.8072C9.95034 23.9452 9.9363 24.0911 9.95274 24.235C9.9696 24.3791 10.0165 24.518 10.0904 24.6422C10.1645 24.7664 10.2643 24.8732 10.3822 24.9551C11.4326 25.6843 12.6263 26.1721 13.8803 26.3854C14.0214 26.4097 14.166 26.4036 14.3045 26.3666C14.443 26.3296 14.5723 26.2627 14.6836 26.1709C14.7944 26.0795 14.8847 25.965 14.9485 25.8352C15.0122 25.7052 15.0482 25.5625 15.0533 25.4174L15.2238 20.482C15.2294 20.2733 15.1725 20.0679 15.0604 19.8932C14.9481 19.7183 14.7858 19.5821 14.5957 19.5035ZM17.9496 18.5525C17.7535 18.4879 17.5422 18.4861 17.3449 18.5473C17.1477 18.6084 16.9737 18.7298 16.8463 18.8947C16.7194 19.0587 16.6451 19.2587 16.6342 19.4672C16.6233 19.6757 16.6762 19.8828 16.7854 20.0596L19.3735 24.2473C19.4499 24.3705 19.5516 24.4757 19.6711 24.5561C19.7905 24.6363 19.9253 24.6899 20.0666 24.7131C20.208 24.7363 20.3531 24.7283 20.4914 24.6902C20.6296 24.6521 20.7582 24.5847 20.8687 24.4922C21.8489 23.6742 22.6409 22.6475 23.1896 21.4846C23.2515 21.354 23.2853 21.2111 23.2881 21.0662C23.2908 20.9214 23.2628 20.7777 23.2061 20.6449C23.1491 20.5117 23.0645 20.3921 22.9588 20.2945C22.8531 20.197 22.7283 20.1231 22.5926 20.0783L17.9496 18.5525ZM8.03436 14.1996C7.8918 14.1953 7.7499 14.2211 7.61778 14.2758C7.48602 14.3309 7.36728 14.4145 7.26972 14.5201C7.17216 14.6258 7.09764 14.7514 7.05174 14.8887C6.64668 16.1089 6.51174 17.4053 6.65628 18.685C6.67338 18.8288 6.71958 18.9676 6.79218 19.0922C6.90438 19.2795 7.07238 19.426 7.27146 19.51C7.47054 19.594 7.69074 19.6114 7.9002 19.5598L12.6398 18.3656C12.8395 18.3159 13.019 18.2044 13.1543 18.0469C13.2896 17.8892 13.3741 17.6931 13.3957 17.485C13.4161 17.2771 13.3733 17.068 13.2733 16.8856C13.1731 16.7031 13.0202 16.5562 12.8356 16.4648L8.44626 14.3004C8.31744 14.2379 8.17704 14.2039 8.03436 14.1996ZM20.3021 10.8398C20.1608 10.8584 20.0251 10.9075 19.9037 10.9834C19.7823 11.0593 19.678 11.1605 19.5979 11.2805L16.8668 15.3733C16.7513 15.5459 16.691 15.7509 16.6945 15.9598C16.6981 16.1686 16.765 16.3713 16.8862 16.5398C17.0084 16.7086 17.1787 16.8352 17.3737 16.9031C17.5685 16.971 17.779 16.9766 17.9771 16.9195L22.6711 15.5584C22.8086 15.5191 22.9363 15.4501 23.0455 15.3563C23.1547 15.2624 23.2428 15.146 23.3039 15.0146C23.365 14.8832 23.3979 14.7399 23.4 14.5945C23.402 14.4491 23.373 14.3047 23.3156 14.1715C22.8086 12.9881 22.0505 11.9338 21.0955 11.0842C20.9872 10.9896 20.8606 10.9188 20.724 10.8767C20.5874 10.8347 20.4437 10.8222 20.3021 10.8398ZM14.2394 3.60293C13.3826 3.67133 12.535 3.81958 11.7053 4.04473L11.3947 4.13203C10.6737 4.34458 9.97038 4.61551 9.29178 4.94297C9.16716 5.00368 9.05598 5.08987 8.96544 5.1961C8.8749 5.30228 8.8071 5.42645 8.76564 5.56055C8.72466 5.6943 8.71134 5.8356 8.72694 5.97481C8.74254 6.11394 8.7864 6.24828 8.85588 6.36912L13.4432 14.4023C13.5541 14.597 13.7251 14.749 13.9295 14.8348C14.134 14.9205 14.3611 14.9352 14.5746 14.8763C14.7883 14.8201 14.9775 14.6926 15.1125 14.5148C15.2474 14.3371 15.3203 14.1184 15.3199 13.8937V4.61836C15.3207 4.40659 15.2567 4.19963 15.136 4.02715C15.0152 3.85468 14.8442 3.72524 14.6473 3.65684C14.5163 3.61097 14.3776 3.59279 14.2394 3.60293Z" fill="white"/>
</g>
<defs>
<clipPath id="clip0_2023_142">
<rect width="30" height="30" fill="white"/>
</clipPath>
</defs>
</svg>
